<svg viewBox="0 0 100 100" xmlns="http://www.w3.org/2000/svg">
  <rect width="100" height="100" rx="18" fill="oklch(0.5234 0.1347 144.2)"/>
  <g transform="translate(3.735 19.69) scale(0.3694)">
    <path
      d="M77.554 20.2803C77.004 22.0703 72.294 39.2803 67.084 58.5303C61.884 77.7803 55.534 101.41 52.974 111.03C50.414 120.66 47.264 132.36 45.974 137.03C44.684 141.7 43.814 145.87 44.034 146.28C44.264 146.69 55.804 147.04 69.694 147.05L94.944 147.08C96.714 141.23 99.414 131.54 102.084 121.77L106.944 104.01L180.734 103.53C187.414 78.7303 189.374 70.9703 189.394 70.2803C189.434 69.3003 181.304 69.0303 151.944 69.0303C131.314 69.0303 114.444 68.6903 114.454 68.2803C114.454 67.8703 115.354 64.0403 116.454 59.7803L118.444 52.0303C179.674 52.0303 197.444 51.8003 197.444 51.5303C197.444 51.2603 199.464 43.6003 201.944 34.5303C204.424 25.4603 206.444 17.8003 206.444 17.5303C206.444 17.2603 177.674 17.0303 142.504 17.0303H78.564L77.554 20.2803Z"
      fill="oklch(0.9705 0.0057 128.5)"
    />
  </g>
</svg>
